<svg width="29" height="31" viewBox="0 0 29 31" fill="none" xmlns="http://www.w3.org/2000/svg">
<path d="M9.53826 10.2743V4.76409H18.8732V10.2743M9.53826 10.2743H18.8732M9.53826 10.2743C7.97142 13.8128 5.99153 16.8865 5.99153 16.8865M18.8732 10.2743L22.6655 16.8865M18.8732 10.2743L23.0408 7.5192L28 15.2335L22.6655 16.8865M22.6655 16.8865L28 19.0906L23.0408 26.8049C23.0408 26.8049 19.204 24.4088 18.8732 24.0498M22.6655 16.8865L18.8732 24.0498M18.8732 24.0498L9.53826 24.0174M18.8732 24.0498V29.56H9.53826C9.53826 29.56 9.72081 25.1169 9.53826 24.0174M9.53826 24.0174L4.85714 26.8049L1 19.0906L5.99153 16.8865M9.53826 24.0174L5.99153 16.8865M5.99153 16.8865L1 14.1314L4.85714 6.96818C6.31575 7.70287 8.90881 9.50287 7.61224 10.8253C5.99153 12.4784 4.92184 8.07022 5.99153 4.76409C7.06122 1.45797 4.5 -0.308804 1.5 2.15185" stroke="#7C6436" stroke-miterlimit="10" stroke-linejoin="round"/>
</svg>
