<svg width="30" height="34" viewBox="0 0 30 34" fill="none" xmlns="http://www.w3.org/2000/svg">
<path d="M3.49163 25C3.49163 25 -1.94039 26.7039 3.23653 28.4784C8.41344 30.2528 15.781 32.7935 19.1988 30.3684C22.6167 27.9434 16.0574 25.3112 13.9967 27.7955C11.936 30.2797 17.567 33.6576 12.6414 32.8887C7.71575 32.1197 5.57792 30.8712 3.36635 32.7639" stroke="#7C6436" stroke-miterlimit="10"/>
<path d="M3.17365 25.1595L5.84031 19.8262" stroke="#7C6436" stroke-miterlimit="10"/>
<path d="M23.4493 7.256L22.7292 6.49306L8.95142 19.3819L10.7292 21.1597L28.7363 3.52768L25.8715 1L24.7762 2.07426L23.7651 1L17.1931 7.61404L17.9514 8.96218L6.91396 19.1572L7.80219 20.0653L9.65447 21.7938C9.65447 21.7938 8.69245 22.295 3.17365 25.1597" stroke="#7C6436" stroke-miterlimit="10"/>
</svg>
