<svg width="27" height="24" viewBox="0 0 27 24" fill="none" xmlns="http://www.w3.org/2000/svg">
<g clip-path="url(#clip0)">
<path d="M6.48161 12.1261C5.8544 13.8196 3.32777 14.087 2.59996 14.087C0.65914 14.087 -0.00580795 18.7744 3.44454 20.1938C7.05437 21.6787 9.12328 18.6998 10.489 21.1649C11.8547 23.6301 9.41074 23.3312 7.97313 21.912C6.53552 20.4926 8.53446 18.8217 8.53446 18.8217C10.167 17.1611 20.4134 14.6773 21.9229 13.482C23.4324 12.2868 24.1288 12.1039 24.7037 9.32478C25.4764 5.58977 26.303 2.07874 25.8897 2.01341C24.009 1.71603 22.5203 6.43945 21.7523 8.63242C21.2 10.2099 16.5852 9.85759 15.507 10.5299C14.4287 11.2022 14.7954 13.3739 16.8654 12.5C18.9353 11.6261 15.507 10.5299 15.7945 9.93233C16.0821 9.33476 19.2306 7.84424 20.4128 5.88805C20.6714 5.46012 20.959 4.42745 20.6556 4.10665C20.3207 3.75257 18.2223 4.64102 18.2223 4.64102C15.6412 5.76356 12.9396 6.89371 12.8532 6.92071C12.8532 6.92071 7.77549 8.63242 6.48161 12.1261Z" stroke="#7C6436" stroke-miterlimit="10" stroke-linejoin="round"/>
</g>
<defs>
<clipPath id="clip0">
<rect width="27" height="23.1429" fill="white"/>
</clipPath>
</defs>
</svg>
